<svg xmlns="http://www.w3.org/2000/svg" viewBox="0 0 48 48"><circle cx="24" cy="24" r="24" fill="#C2712C"/><g transform="translate(12,12)"><path fill="white" d="M12 2C6.48 2 2 6.48 2 12s4.48 10 10 10 10-4.48 10-10S17.52 2 12 2zm0 2c1.85 0 3.55.63 4.9 1.69L14.3 8.8a4.97 4.97 0 0 0-4.6 0L7.1 5.69A7.96 7.96 0 0 1 12 4zM4 12c0-1.85.63-3.55 1.69-4.9L8.8 9.7a4.97 4.97 0 0 0 0 4.6l-3.11 2.6A7.96 7.96 0 0 1 4 12zm8 8c-1.85 0-3.55-.63-4.9-1.69l2.6-3.11a4.97 4.97 0 0 0 4.6 0l2.6 3.11A7.96 7.96 0 0 1 12 20zm6.31-3.1L15.2 14.3a4.97 4.97 0 0 0 0-4.6l3.11-2.6A7.96 7.96 0 0 1 20 12c0 1.85-.63 3.55-1.69 4.9z"/></g></svg>